<svg width="24" height="24" viewBox="0 0 24 24" fill="none" xmlns="http://www.w3.org/2000/svg">
<path d="M11.3795 2.47247L12.1423 3.11906L12.1423 3.11906L11.3795 2.47247ZM12.478 2.00966L12.351 3.00156L12.478 2.00966ZM11.0312 3.05731L11.949 3.45445L11.949 3.45444L11.0312 3.05731ZM10.6596 4.43168L9.67106 4.28042V4.28042L10.6596 4.43168ZM10.6113 4.8159L10.8879 5.77689L11.5407 5.58901L11.6066 4.91296L10.6113 4.8159ZM4.48238 12.8949L5.39358 13.3069L5.44221 13.1993L5.46445 13.0834L4.48238 12.8949ZM3.73269 14.8628L4.68562 15.1659H4.68562L3.73269 14.8628ZM3.53989 20.3415L3.28262 21.3079H3.28263L3.53989 20.3415ZM5.17566 18.8766L6.06006 18.4099L5.23247 16.8417L4.31867 18.3613L5.17566 18.8766ZM12.1069 22.9092L12.1393 21.9097L12.1069 21.9087L12.0745 21.9097L12.1069 22.9092ZM19.0574 18.8399L19.9167 18.3284L18.999 16.7865L18.1704 18.3781L19.0574 18.8399ZM20.7152 20.3415L20.9724 21.3079L20.7152 20.3415ZM20.5224 14.8628L21.4753 14.5596L20.5224 14.8628ZM19.6999 12.7364L18.7204 12.9378L18.744 13.0525L18.7935 13.1588L19.6999 12.7364ZM13.5007 4.78773L12.5121 4.63751L12.3774 5.52382L13.2438 5.75416L13.5007 4.78773ZM13.5547 3.38042L14.5489 3.27274V3.27274L13.5547 3.38042ZM13.3954 2.73061L14.3113 2.32912L14.3113 2.32912L13.3954 2.73061ZM12.1423 3.11906C12.1644 3.093 12.2042 3.05208 12.2519 3.02422C12.2728 3.01202 12.2891 3.00596 12.3014 3.00305C12.3116 3.00061 12.3264 2.99842 12.351 3.00156L12.605 1.01776C11.4665 0.87198 10.7746 1.63946 10.6166 1.82589L12.1423 3.11906ZM11.949 3.45444C12.0101 3.31324 12.0755 3.19788 12.1423 3.11906L10.6166 1.82589C10.3697 2.11715 10.2119 2.43284 10.1135 2.66017L11.949 3.45444ZM11.648 4.58295C11.7163 4.13709 11.8261 3.73851 11.949 3.45445L10.1135 2.66016C9.90526 3.14135 9.75766 3.71448 9.67106 4.28042L11.648 4.58295ZM11.6066 4.91296C11.6171 4.80482 11.631 4.69436 11.648 4.58295L9.67106 4.28042C9.64864 4.42691 9.63021 4.57352 9.61604 4.71884L11.6066 4.91296ZM10.3347 3.85491C8.60039 4.35408 7.08113 5.60565 5.91871 7.16609C4.7501 8.73485 3.88839 10.6846 3.50031 12.7064L5.46445 13.0834C5.79679 11.352 6.53775 9.68296 7.5226 8.36088C8.51366 7.03049 9.69865 6.11918 10.8879 5.77689L10.3347 3.85491ZM3.57118 12.483C3.28574 13.1143 3.01654 13.8154 2.77975 14.5596L4.68562 15.1659C4.90011 14.4918 5.14186 13.8637 5.39358 13.3069L3.57118 12.483ZM2.77975 14.5596C2.31274 16.0274 2.0439 17.4372 2.00495 18.544C1.98576 19.0894 2.01966 19.6244 2.15135 20.0739C2.27043 20.4804 2.56558 21.117 3.28262 21.3079L3.79716 19.3752C4.11952 19.461 4.12944 19.7122 4.07069 19.5116C4.02455 19.3541 3.98801 19.0605 4.00371 18.6144C4.03454 17.7383 4.25678 16.5138 4.68562 15.1659L2.77975 14.5596ZM3.28263 21.3079C4.02742 21.5061 4.64231 21.0631 4.96666 20.7673C5.34703 20.4204 5.70643 19.9345 6.03264 19.392L4.31867 18.3613C4.04131 18.8225 3.79802 19.1263 3.61898 19.2896C3.52994 19.3708 3.48998 19.3865 3.50202 19.3814C3.51999 19.3737 3.6341 19.3318 3.79716 19.3752L3.28263 21.3079ZM4.29126 19.3434C5.86502 22.3255 8.98675 23.9118 11.9448 23.9118V21.9118C9.65455 21.9118 7.25442 20.6731 6.06006 18.4099L4.29126 19.3434ZM11.9448 23.9118C12.0098 23.9118 12.0746 23.9108 12.1393 23.9087L12.0745 21.9097C12.0314 21.9111 11.9882 21.9118 11.9448 21.9118V23.9118ZM12.0745 23.9087C12.1392 23.9108 12.204 23.9118 12.269 23.9118V21.9118C12.2256 21.9118 12.1824 21.9111 12.1393 21.9097L12.0745 23.9087ZM12.269 23.9118C15.2407 23.9118 18.3779 22.3107 19.9444 19.3016L18.1704 18.3781C16.9817 20.6615 14.5701 21.9118 12.269 21.9118V23.9118ZM18.1981 19.3513C18.5277 19.9052 18.8907 20.4005 19.274 20.7541C19.5992 21.054 20.2195 21.5083 20.9724 21.3079L20.4579 19.3752C20.6231 19.3312 20.7378 19.3748 20.7537 19.3817C20.7639 19.386 20.7216 19.3685 20.63 19.284C20.4461 19.1144 20.198 18.801 19.9167 18.3284L18.1981 19.3513ZM20.9724 21.3079C21.6895 21.117 21.9846 20.4804 22.1037 20.0739C22.2354 19.6244 22.2693 19.0894 22.2501 18.544C22.2112 17.4372 21.9423 16.0274 21.4753 14.5596L19.5694 15.1659C19.9983 16.5138 20.2205 17.7383 20.2513 18.6144C20.267 19.0604 20.2305 19.3541 20.1844 19.5116C20.1256 19.7122 20.1355 19.461 20.4579 19.3752L20.9724 21.3079ZM21.4753 14.5596C21.2173 13.7486 20.9207 12.9887 20.6063 12.314L18.7935 13.1588C19.0694 13.751 19.3356 14.431 19.5694 15.1659L21.4753 14.5596ZM20.6794 12.535C20.266 10.5239 19.3862 8.59153 18.204 7.04546C17.0281 5.5076 15.4986 4.28415 13.7576 3.8213L13.2438 5.75416C14.429 6.06927 15.6151 6.95225 16.6153 8.26028C17.6091 9.5601 18.3659 11.2131 18.7204 12.9378L20.6794 12.535ZM12.5605 3.48811C12.5929 3.78703 12.5795 4.19361 12.5121 4.63751L14.4894 4.93795C14.5749 4.37525 14.6048 3.78873 14.5489 3.27274L12.5605 3.48811ZM12.4796 3.1321C12.5166 3.21658 12.5443 3.33798 12.5605 3.48811L14.5489 3.27274C14.5224 3.02845 14.4648 2.67928 14.3113 2.32912L12.4796 3.1321ZM12.351 3.00156C12.3754 3.00468 12.3857 3.01001 12.3896 3.01212C12.3953 3.01519 12.4043 3.02119 12.4163 3.03366C12.4456 3.06392 12.4676 3.10479 12.4796 3.1321L14.3113 2.32912C14.211 2.10042 13.7605 1.16571 12.605 1.01776L12.351 3.00156Z" fill="white"/>
<path d="M9.02036 17.0193L9.72748 16.3122L9.72271 16.3075L9.02036 17.0193ZM8.99971 16.999L8.29259 17.7061L8.29736 17.7108L8.99971 16.999ZM11.9997 19.9987L11.2926 20.7058C11.6832 21.0964 12.3163 21.0964 12.7068 20.7058L11.9997 19.9987ZM14.9776 17.0208L14.2808 16.3036C14.2773 16.307 14.2739 16.3103 14.2705 16.3137L14.9776 17.0208ZM14.9999 13.999L15.707 13.2919L15.707 13.2919L14.9999 13.999ZM12.0001 13.9989L11.2921 14.7051C11.4796 14.893 11.734 14.9987 11.9994 14.9989C12.2648 14.999 12.5194 14.8937 12.7071 14.706L12.0001 13.9989ZM11.9998 13.9986L12.7078 13.2923C12.5203 13.1044 12.2658 12.9988 12.0004 12.9986C11.735 12.9984 11.4804 13.1038 11.2927 13.2915L11.9998 13.9986ZM11.9995 13.9989L11.2924 14.7061C11.683 15.0965 12.3161 15.0965 12.7066 14.706L11.9995 13.9989ZM9.72271 16.3075L9.70207 16.2872L8.29736 17.7108L8.318 17.7312L9.72271 16.3075ZM12.7068 19.2916L9.72746 16.3122L8.31325 17.7265L11.2926 20.7058L12.7068 19.2916ZM14.2705 16.3137L11.2926 19.2916L12.7068 20.7058L15.6847 17.728L14.2705 16.3137ZM15.6744 17.7381C15.6854 17.7275 15.6962 17.7168 15.707 17.706L14.2928 16.2918C14.2888 16.2958 14.2848 16.2997 14.2808 16.3036L15.6744 17.7381ZM15.707 17.706C16.9259 16.4871 16.9259 14.5108 15.707 13.2919L14.2928 14.7061C14.7307 15.144 14.7307 15.8539 14.2928 16.2918L15.707 17.706ZM15.707 13.2919C14.4881 12.073 12.512 12.0729 11.293 13.2917L12.7071 14.706C13.145 14.2682 13.8549 14.2682 14.2928 14.7061L15.707 13.2919ZM12.708 13.2926L12.7078 13.2923L11.2918 14.7048L11.2921 14.7051L12.708 13.2926ZM11.2927 13.2915L11.2924 13.2918L12.7066 14.706L12.7069 14.7057L11.2927 13.2915ZM9.70682 14.7062C10.1447 14.2683 10.8546 14.2683 11.2924 14.7061L12.7065 13.2917C11.4876 12.073 9.51146 12.0731 8.29261 13.292L9.70682 14.7062ZM9.70682 16.2919C9.26894 15.854 9.26894 15.1441 9.70682 14.7062L8.29261 13.292C7.07368 14.5109 7.07368 16.4872 8.29261 17.7061L9.70682 16.2919Z" fill="white"/>
</svg>
