<svg width="341" height="199" viewBox="0 0 341 199" fill="none" xmlns="http://www.w3.org/2000/svg">
<rect width="341" height="199" rx="10" fill="white"/>
<g clip-path="url(#clip0_302_5337)">
<rect x="5" y="144" width="331" height="50" rx="10" fill="white"/>
<path d="M57.1071 150.98C57.4911 150.98 57.8751 151.196 57.8751 151.628V152.96H62.1231V151.628C62.1231 151.196 62.5071 150.98 62.8911 150.98C63.2751 150.98 63.6591 151.196 63.6591 151.628L63.6591 156.128C63.6591 156.884 63.4071 157.124 62.6391 157.124H57.3591C56.5911 157.124 56.3391 156.884 56.3391 156.128L56.3391 151.628C56.3391 151.196 56.7231 150.98 57.1071 150.98ZM57.8751 154.244L57.8751 155.564C57.8751 155.768 57.9471 155.84 58.1511 155.84H61.8471C62.0511 155.84 62.1231 155.768 62.1231 155.564L62.1231 154.244H57.8751Z" fill="#001C2C"/>
<path d="M277.607 150.98C277.991 150.98 278.375 151.196 278.375 151.628V152.96H282.623V151.628C282.623 151.196 283.007 150.98 283.391 150.98C283.775 150.98 284.159 151.196 284.159 151.628V156.128C284.159 156.884 283.907 157.124 283.139 157.124H277.859C277.091 157.124 276.839 156.884 276.839 156.128V151.628C276.839 151.196 277.223 150.98 277.607 150.98ZM278.375 154.244V155.564C278.375 155.768 278.447 155.84 278.651 155.84H282.347C282.551 155.84 282.623 155.768 282.623 155.564V154.244H278.375Z" fill="#001C2C"/>
<path d="M169.771 148.604C170.167 148.604 170.539 148.808 170.539 149.252V152.144H172.027C172.411 152.144 172.579 152.444 172.579 152.804C172.579 153.176 172.411 153.476 172.027 153.476H170.539V158.444C170.539 158.888 170.167 159.092 169.771 159.092C169.375 159.092 169.003 158.888 169.003 158.444V149.252C169.003 148.808 169.375 148.604 169.771 148.604Z" fill="#001C2C"/>
<line x1="115.25" y1="139" x2="115.25" y2="199" stroke="#DCDCDC" stroke-width="0.5"/>
<line x1="225.25" y1="139" x2="225.25" y2="199" stroke="#DCDCDC" stroke-width="0.5"/>
<line x1="338" y1="164.25" x2="3.00049" y2="164.25" stroke="#DCDCDC" stroke-width="0.5"/>
<line x1="338" y1="174.25" x2="3.00049" y2="174.25" stroke="#DCDCDC" stroke-width="0.5"/>
<path d="M61.614 183.308C61.726 183.308 61.806 183.344 61.854 183.416C61.902 183.488 61.926 183.58 61.926 183.692C61.926 183.804 61.902 183.896 61.854 183.968C61.806 184.04 61.726 184.076 61.614 184.076H58.386C58.282 184.076 58.206 184.04 58.158 183.968C58.11 183.896 58.086 183.804 58.086 183.692C58.086 183.58 58.11 183.488 58.158 183.416C58.206 183.344 58.282 183.308 58.386 183.308H61.614Z" fill="#001C2C"/>
<path d="M171.614 183.308C171.726 183.308 171.806 183.344 171.854 183.416C171.902 183.488 171.926 183.58 171.926 183.692C171.926 183.804 171.902 183.896 171.854 183.968C171.806 184.04 171.726 184.076 171.614 184.076H168.386C168.282 184.076 168.206 184.04 168.158 183.968C168.11 183.896 168.086 183.804 168.086 183.692C168.086 183.58 168.11 183.488 168.158 183.416C168.206 183.344 168.282 183.308 168.386 183.308H171.614Z" fill="#001C2C"/>
<path d="M282.114 183.308C282.226 183.308 282.306 183.344 282.354 183.416C282.402 183.488 282.426 183.58 282.426 183.692C282.426 183.804 282.402 183.896 282.354 183.968C282.306 184.04 282.226 184.076 282.114 184.076H278.886C278.782 184.076 278.706 184.04 278.658 183.968C278.61 183.896 278.586 183.804 278.586 183.692C278.586 183.58 278.61 183.488 278.658 183.416C278.706 183.344 278.782 183.308 278.886 183.308H282.114Z" fill="#001C2C"/>
</g>
<rect x="5.5" y="144.5" width="330" height="49" rx="9.5" stroke="#DCDCDC"/>
<path d="M156 57L156 100.3" stroke="#DBDBDB" stroke-width="4" stroke-linecap="round"/>
<path d="M166 58.1396L166 98.4871" stroke="#DBDBDB" stroke-width="4" stroke-linecap="round"/>
<path d="M176 63.8369L176 92.3754" stroke="#DBDBDB" stroke-width="4" stroke-linecap="round"/>
<path d="M186 61.5576L186 95.0165" stroke="#DBDBDB" stroke-width="4" stroke-linecap="round"/>
<path d="M196 68.3945L196 90.0444" stroke="#DBDBDB" stroke-width="4" stroke-linecap="round"/>
<path d="M206 67.2549L206 90.8729" stroke="#DBDBDB" stroke-width="4" stroke-linecap="round"/>
<path d="M216 71.8135L216 84.6066" stroke="#DBDBDB" stroke-width="4" stroke-linecap="round"/>
<path d="M126 71.8135L126 85.5907" stroke="#DBDBDB" stroke-width="4" stroke-linecap="round"/>
<path d="M146 63.8369L146 93.3595" stroke="#DBDBDB" stroke-width="4" stroke-linecap="round"/>
<path d="M136 66.1162L136 90.7183" stroke="#DBDBDB" stroke-width="4" stroke-linecap="round"/>
<defs>
<clipPath id="clip0_302_5337">
<rect x="5" y="144" width="331" height="50" rx="10" fill="white"/>
</clipPath>
</defs>
</svg>
