<svg width="38" height="38" viewBox="0 0 38 38" fill="none" xmlns="http://www.w3.org/2000/svg">
<g filter="url(#filter0_d_93_197)">
<circle cx="17" cy="17" r="16" fill="#C1C2CD"/>
<g clip-path="url(#clip0_93_197)">
<path d="M18.3881 8.59961H12.3304C11.8713 8.59961 11.4311 8.78196 11.1065 9.10654C10.782 9.43112 10.5996 9.87135 10.5996 10.3304V24.1765C10.5996 24.6356 10.782 25.0758 11.1065 25.4004C11.4311 25.725 11.8713 25.9073 12.3304 25.9073H22.715C23.174 25.9073 23.6142 25.725 23.9388 25.4004C24.2634 25.0758 24.4458 24.6356 24.4458 24.1765V14.6573L18.3881 8.59961Z" stroke="white" stroke-width="2" stroke-linecap="round" stroke-linejoin="round"/>
<path d="M18.3887 8.59961V14.6573H24.4464" stroke="white" stroke-width="2" stroke-linecap="round" stroke-linejoin="round"/>
</g>
</g>
<defs>
<filter id="filter0_d_93_197" x="0" y="0" width="38" height="38" filterUnits="userSpaceOnUse" color-interpolation-filters="sRGB">
<feFlood flood-opacity="0" result="BackgroundImageFix"/>
<feColorMatrix in="SourceAlpha" type="matrix" values="0 0 0 0 0 0 0 0 0 0 0 0 0 0 0 0 0 0 127 0" result="hardAlpha"/>
<feOffset dx="2" dy="2"/>
<feGaussianBlur stdDeviation="1.5"/>
<feComposite in2="hardAlpha" operator="out"/>
<feColorMatrix type="matrix" values="0 0 0 0 0 0 0 0 0 0 0 0 0 0 0 0 0 0 0.25 0"/>
<feBlend mode="normal" in2="BackgroundImageFix" result="effect1_dropShadow_93_197"/>
<feBlend mode="normal" in="SourceGraphic" in2="effect1_dropShadow_93_197" result="shape"/>
</filter>
<clipPath id="clip0_93_197">
<rect width="20" height="20" fill="white" transform="translate(7 7)"/>
</clipPath>
</defs>
</svg>
