<svg width="44" height="12" viewBox="0 0 44 12" fill="none" xmlns="http://www.w3.org/2000/svg">
<path d="M1.416 1.036C1.716 1.036 2.016 1.192 2.016 1.54V2.692L4.776 2.692V1.54C4.776 1.192 5.064 1.036 5.364 1.036C5.664 1.036 5.964 1.192 5.964 1.54V5.02C5.964 5.704 5.736 5.92 5.04 5.92L1.752 5.92C1.056 5.92 0.828 5.704 0.828 5.02L0.828 1.54C0.828 1.192 1.116 1.036 1.416 1.036ZM2.016 4.696C2.016 4.888 2.076 4.948 2.268 4.948L4.524 4.948C4.704 4.948 4.776 4.888 4.776 4.696V3.664L2.016 3.664V4.696ZM8.352 0.663999C8.664 0.663999 8.952 0.819999 8.952 1.168V2.968L10.272 2.968C10.584 2.968 10.716 3.208 10.716 3.484C10.716 3.784 10.584 4.012 10.272 4.012L8.952 4.012V5.896C8.952 6.244 8.664 6.4 8.352 6.4C8.04 6.4 7.752 6.244 7.752 5.896L7.752 1.168C7.752 0.819999 8.04 0.663999 8.352 0.663999ZM8.028 6.916C8.724 6.916 8.952 7.132 8.952 7.816V8.884C8.952 9.568 8.724 9.784 8.028 9.784H3.504C3.312 9.784 3.252 9.844 3.252 10.036V10.516C3.252 10.696 3.312 10.768 3.504 10.768L8.82 10.768C9.096 10.768 9.216 10.996 9.216 11.248C9.216 11.5 9.096 11.728 8.82 11.728L3.012 11.728C2.316 11.728 2.088 11.512 2.088 10.828V9.76C2.088 9.076 2.316 8.86 3.012 8.86H7.536C7.716 8.86 7.788 8.8 7.788 8.608V8.128C7.788 7.948 7.716 7.888 7.536 7.888L2.46 7.888C2.184 7.888 2.064 7.66 2.064 7.396C2.064 7.144 2.184 6.916 2.46 6.916L8.028 6.916ZM15.7616 0.891999C18.0656 0.891999 19.4096 1.54 19.4096 2.956C19.4096 4.372 18.0656 5.02 15.7616 5.02C13.4576 5.02 12.1136 4.372 12.1136 2.956C12.1136 1.54 13.4576 0.891999 15.7616 0.891999ZM15.7616 1.864C14.0456 1.864 13.3016 2.248 13.3016 2.956C13.3016 3.664 14.0456 4.048 15.7616 4.048C17.4776 4.048 18.2216 3.664 18.2216 2.956C18.2216 2.248 17.4776 1.864 15.7616 1.864ZM20.3816 5.86C20.6696 5.86 20.8016 6.076 20.8016 6.364C20.8016 6.64 20.6696 6.868 20.3816 6.868L11.1416 6.868C10.8536 6.868 10.7216 6.64 10.7216 6.364C10.7216 6.076 10.8536 5.86 11.1416 5.86L20.3816 5.86ZM18.5216 7.888C19.2176 7.888 19.4456 8.104 19.4456 8.788V10.816C19.4456 11.5 19.2176 11.716 18.5216 11.716L13.0016 11.716C12.3056 11.716 12.0896 11.5 12.0896 10.816V8.788C12.0896 8.104 12.3056 7.888 13.0016 7.888L18.5216 7.888ZM13.5296 8.884C13.3376 8.884 13.2776 8.944 13.2776 9.124V10.48C13.2776 10.66 13.3376 10.72 13.5296 10.72L17.9936 10.72C18.1856 10.72 18.2456 10.66 18.2456 10.48V9.124C18.2456 8.944 18.1856 8.884 17.9936 8.884L13.5296 8.884ZM29.3671 1.288C29.6551 1.288 29.7871 1.528 29.7871 1.804C29.7871 2.08 29.6551 2.308 29.3671 2.308L27.4471 2.308V2.932C27.4471 3.7 27.6511 4.132 28.2391 4.6C28.7911 5.032 29.2831 5.38 29.6671 5.644C29.9311 5.836 29.9311 6.148 29.7631 6.376C29.6071 6.592 29.3191 6.712 29.0311 6.52C28.7551 6.328 28.2271 5.944 27.7471 5.584C27.1351 5.116 26.9311 4.828 26.8711 4.6H26.8591C26.7991 4.852 26.5591 5.176 25.9471 5.644C25.4551 6.016 24.9031 6.412 24.4591 6.712C24.1831 6.904 23.8831 6.772 23.7391 6.568C23.5711 6.34 23.5471 6.016 23.8351 5.812C24.3751 5.44 24.8911 5.08 25.4551 4.624C26.0431 4.168 26.2471 3.736 26.2471 2.968V2.308L24.2431 2.308C23.9431 2.308 23.8111 2.08 23.8111 1.804C23.8111 1.528 23.9431 1.288 24.2431 1.288L29.3671 1.288ZM31.9351 0.663999C32.2351 0.663999 32.5231 0.819999 32.5231 1.168V6.412C32.5231 6.76 32.2351 6.916 31.9351 6.916C31.6231 6.916 31.3351 6.76 31.3351 6.412V4.372L29.6071 4.372C29.3071 4.372 29.1751 4.132 29.1751 3.856C29.1751 3.568 29.3071 3.34 29.6071 3.34L31.3351 3.34V1.168C31.3351 0.819999 31.6231 0.663999 31.9351 0.663999ZM26.3911 7.432L31.5991 7.432C32.2951 7.432 32.5231 7.648 32.5231 8.332V10.768C32.5231 11.452 32.2951 11.668 31.5991 11.668L26.3911 11.668C25.6951 11.668 25.4671 11.452 25.4671 10.768V8.332C25.4671 7.648 25.6951 7.432 26.3911 7.432ZM31.0831 8.44L26.9071 8.44C26.7271 8.44 26.6551 8.512 26.6551 8.692V10.408C26.6551 10.588 26.7271 10.66 26.9071 10.66L31.0831 10.66C31.2631 10.66 31.3351 10.588 31.3351 10.408V8.692C31.3351 8.512 31.2631 8.44 31.0831 8.44ZM38.7447 0.939999C39.0687 0.939999 39.3567 1.096 39.3567 1.456V2.056C39.3567 2.824 39.7407 3.352 40.5087 3.76C41.3247 4.192 42.0447 4.54 42.7047 4.852C42.9807 4.972 42.9927 5.332 42.8847 5.56C42.7647 5.812 42.4887 5.956 42.2007 5.824C41.4207 5.464 40.6887 5.104 39.9807 4.732C39.1527 4.288 38.8167 3.892 38.7567 3.604H38.7447C38.6727 3.928 38.3367 4.312 37.5087 4.756C36.8007 5.128 36.0687 5.488 35.2887 5.848C35.0127 5.98 34.7367 5.836 34.6047 5.572C34.4847 5.332 34.5087 4.972 34.7847 4.852C35.4447 4.54 36.1647 4.192 36.9807 3.76C37.7487 3.352 38.1327 2.824 38.1327 2.056V1.456C38.1327 1.096 38.4207 0.939999 38.7447 0.939999ZM43.3647 6.976C43.6527 6.976 43.7847 7.216 43.7847 7.492C43.7847 7.768 43.6527 7.996 43.3647 7.996L39.3447 7.996V11.368C39.3447 11.716 39.0567 11.872 38.7447 11.872C38.4327 11.872 38.1447 11.716 38.1447 11.368V7.996L34.1247 7.996C33.8367 7.996 33.7047 7.768 33.7047 7.492C33.7047 7.216 33.8367 6.976 34.1247 6.976L43.3647 6.976Z" fill="#001C2C"/>
</svg>
